# xmcd
#
# Track frame offsets:
#	150
#	10720
#	25324
#	39079
#	52631
#	66792
#	84013
#	95181
#	109582
#	123592
#	137762
#	150368
#
# Disc length: 2170 seconds
#
# Revision: 1
# Processed by: cddbd v1.5.2PL0 Copyright (c) Steve Scherf et al.
# Submitted via: audiograbber 1.83.01
#
DISCID=8308780c
DTITLE=Various Artist - Revolver - Zeppelin's Blues
DYEAR=1900
DGENRE=Blues
TTITLE0=Little Richard - Keep On Knockin'
TTITLE1=Blind Willie Johnson - Jesus make up my dying Bed (in my time of dying)
TTITLE1=
TTITLE2=Leadbelly - The Gallis Pole
TTITLE3=Sonny Terry - Custard Pie Blues
TTITLE4=Sleepy John Estes - Drop Down Mama
TTITLE5=Jake Holmes - Dazed And Confused
TTITLE6=Robert Johnson - Stones in my passway
TTITLE7=Blind Willie Johnson - Nobody's Fault But Mine
TTITLE8=Otis Rush - I Can't Quit You Baby
TTITLE9=Memphis Minnie - When The Leevee Breaks
TTITLE10=Howlin' Wolf - Killing floor
TTITLE11=Robert Johnson - Travelling Riverside Blues
EXTD=
EXTT0=
EXTT1=
EXTT2=
EXTT3=
EXTT4=
EXTT5=
EXTT6=
EXTT7=
EXTT8=
EXTT9=
EXTT10=
EXTT11=
PLAYORDER=
